<svg fill="none" stroke-linecap="square" stroke-miterlimit="10" viewBox="0 0 960 720" xmlns="http://www.w3.org/2000/svg" xmlns:xlink="http://www.w3.org/1999/xlink"><clipPath id="a"><path d="m0 0h960v720h-960z"/></clipPath><g clip-path="url(#a)"><path d="m0 0h960v720h-960z" fill="none"/><g fill-rule="evenodd"><path d="m191.89684 359.9994c0-159.11494 128.98814-288.1031 288.1031-288.1031 76.40967 0 149.68982 30.35363 203.71967 84.38344 54.029785 54.029816 84.38342 127.30997 84.38342 203.71967 0 159.11493-128.98816 288.1031-288.1031 288.1031-159.11496 0-288.1031-128.98816-288.1031-288.1031z" fill="#26a69a"/><path d="m351.96127 231.66385c0-15.568085 12.620422-28.188538 28.188538-28.188538h201.65787c7.476074 0 14.645935 2.969864 19.932312 8.256241s8.256226 12.456238 8.256226 19.932297c0 15.5681-12.620422 28.188538-28.188538 28.188538h-201.65787c-15.568115 0-28.188538-12.620438-28.188538-28.188538z" fill="#fff"/><path d="m351.96127 488.3785c0-15.568115 12.620422-28.188538 28.188538-28.188538h201.65787c7.476074 0 14.645935 2.9698486 19.932312 8.256226 5.286377 5.286377 8.256226 12.456238 8.256226 19.932312 0 15.568085-12.620422 28.188507-28.188538 28.188507h-201.65787c-15.568115 0-28.188538-12.620422-28.188538-28.188507z" fill="#fff"/><path d="m349.98386 360.02118c0-15.568085 12.620422-28.188538 28.188538-28.188538h72.142975c7.476074 0 14.645935 2.9698486 19.932312 8.256226 5.286377 5.286377 8.256226 12.456238 8.256226 19.932312 0 15.568085-12.620422 28.188538-28.188538 28.188538h-72.142975c-15.568115 0-28.188538-12.620453-28.188538-28.188538z" fill="#fff"/></g></g></svg>