<svg fill="none" stroke-linecap="square" stroke-miterlimit="10" viewBox="0 0 960.17585302 160.38845144" xmlns="http://www.w3.org/2000/svg" xmlns:xlink="http://www.w3.org/1999/xlink"><clipPath id="a"><path d="m0 0h960.17584v160.38846h-960.17584z"/></clipPath><g clip-path="url(#a)"><path d="m0 0h960.17584v160.38846h-960.17584z" fill="none"/><g fill-rule="evenodd"><path d="m43.806206 80.94508c0-40.286346 32.65853-72.944885 72.94488-72.944885 19.346191 0 37.90001 7.6852427 51.57982 21.36506 13.679825 13.679821 21.365067 32.233635 21.365067 51.579823 0 40.286346-32.65854 72.944885-72.944885 72.944885-40.286346 0-72.94488-32.65854-72.94488-72.944885z" fill="#26a69a"/><path d="m84.33295 48.451782c0-3.9416885 3.1953735-7.137062 7.137062-7.137062h51.057808c1.892868 0 3.7082062.7519417 5.0466614 2.090397 1.3384552 1.338459 2.090393 3.153801 2.090393 5.046665 0 3.9416924-3.1953735 7.137062-7.1370544 7.137062h-51.057808c-3.9416885 0-7.137062-3.1953697-7.137062-7.137062z" fill="#fff"/><path d="m84.33295 113.44942c0-3.9416962 3.1953735-7.137062 7.137062-7.137062h51.057808c1.892868 0 3.7082062.75193787 5.0466614 2.090393 1.3384552 1.3384628 2.090393 3.153801 2.090393 5.046669 0 3.9416885-3.1953735 7.137062-7.1370544 7.137062h-51.057808c-3.9416885 0-7.137062-3.1953735-7.137062-7.137062z" fill="#fff"/><path d="m83.83229 80.9506c0-3.9416885 3.195366-7.137062 7.1370544-7.137062h18.2659c1.892868 0 3.7082062.75193787 5.0466614 2.090393 1.3384628 1.3384628 2.0904007 3.153801 2.0904007 5.046669 0 3.9416885-3.1953735 7.137062-7.137062 7.137062h-18.2659c-3.9416885 0-7.1370544-3.1953735-7.1370544-7.137062z" fill="#fff"/></g><path d="m195.60104 12.821523h769.00793v136.25197h-769.00793z" fill="none"/><path d="m235.61667 60.997143q7.09375 0 12.5625 3.3125038 5.484375 3.296875 8.5 9.15625 3.03125 5.859375 3.03125 13.34375 0 1.546875-.96875 2.453125-.953125.90625-2.5.90625h-38.78125q.765625 7.875 6.140625 12.78125 5.390625 4.890625 13.453125 4.890625 3.453125 0 6.953125-1.203125 3.5-1.203125 5.625-3.03125 1.234375-.953125 2.578125-.953125 1.0625 0 2.125.765625 1.234375 1.15625 1.234375 2.59375 0 1.25-1.046875 2.203125-3.171875 2.6875-8.078125 4.46875-4.890625 1.78125-9.390625 1.78125-7.6875 0-13.734375-3.40625-6.046875-3.421875-9.453125-9.515625-3.40625-6.09375-3.40625-13.765625 0-7.78125 3.203125-13.875 3.21875-6.09375 8.9375-9.5 5.71875-3.4062538 13.015625-3.4062538zm0 6.609379q-7.296875 0-12.109375 4.515625-4.796875 4.515625-5.84375 11.90625h35.125q-.765625-7.390625-5.375-11.90625-4.609375-4.515625-11.796875-4.515625zm77.459595-5.843754q2.015625.953125 2.015625 3.0625038 0 .578125-.28125 1.34375l-21.03125 45.3125q-1.25 2.5-3.640625 2.5-2.3125 0-3.453125-2.5l-21.3125-45.21875q-.296875-.5625-.296875-1.34375 0-2.0156288 2.109375-3.0625038.671875-.390625 1.546875-.390625.953125 0 1.765625.484375.828125.484375 1.203125 1.4375l18.4375 39.937504 18.234375-39.937504q.390625-.953125 1.25-1.484375.859375-.53125 1.921875-.53125.859375 0 1.53125.390625zm34.572357-.765625q7.09375 0 12.5625 3.3125038 5.484375 3.296875 8.5 9.15625 3.03125 5.859375 3.03125 13.34375 0 1.546875-.96875 2.453125-.953125.90625-2.5.90625h-38.78125q.765625 7.875 6.140625 12.78125 5.390625 4.890625 13.453125 4.890625 3.453125 0 6.953125-1.203125 3.5-1.203125 5.625-3.03125 1.234375-.953125 2.578125-.953125 1.0625 0 2.125.765625 1.234375 1.15625 1.234375 2.59375 0 1.25-1.046875 2.203125-3.171875 2.6875-8.078125 4.46875-4.890625 1.78125-9.390625 1.78125-7.6875 0-13.734375-3.40625-6.046875-3.421875-9.453125-9.515625-3.40625-6.09375-3.40625-13.765625 0-7.78125 3.203125-13.875 3.21875-6.09375 8.9375-9.5 5.71875-3.4062538 13.015625-3.4062538zm0 6.609379q-7.296875 0-12.109375 4.515625-4.796875 4.515625-5.84375 11.90625h35.125q-.765625-7.390625-5.375-11.90625-4.609375-4.515625-11.796875-4.515625zm61.428345-6.718754q6.8125 0 12.234375 2.890625 5.4375 2.8750038 8.5 8.406254 3.078125 5.515625 3.078125 13.1875v24.96875q0 1.53125-1.0625 2.59375-1.046875 1.046875-2.59375 1.046875-1.625 0-2.6875-1.046875-1.046875-1.0625-1.046875-2.59375v-24.96875q0-8.546875-4.75-13-4.75-4.46875-12.4375-4.46875-4.703125 0-8.5 1.828125-3.78125 1.8125-6 5.03125-2.203125 3.21875-2.203125 7.15625v28.421875q0 1.625-1.015625 2.640625-1 1-2.625 1-1.640625 0-2.703125-1-1.046875-1.015625-1.046875-2.640625v-45.125q0-1.6406288 1.046875-2.6875038 1.0625-1.0625 2.703125-1.0625 1.625 0 2.625 1.0625 1.015625 1.046875 1.015625 2.6875038v3.265625q3.171875-3.5625 7.671875-5.578129 4.515625-2.015625 9.796875-2.015625zm63.273224 45.70313q1.53125 0 2.484375 1.0625.96875 1.046875.96875 2.6875 0 1.53125-1.15625 2.59375-1.15625 1.046875-2.875 1.046875h-2.015625q-5.09375 0-9.125-2.4375-4.03125-2.453125-6.296875-6.625-2.25-4.1875-2.25-9.46875v-25.625h-6.234375q-1.53125 0-2.453125-.90625-.90625-.921875-.90625-2.265625 0-1.4375.90625-2.34375.921875-.9218788 2.453125-.9218788h6.234375v-14.875q0-1.640625 1-2.6875 1.015625-1.0625 2.65625-1.0625 1.625 0 2.671875 1.0625 1.0625 1.046875 1.0625 2.6875v14.875h10.859375q1.53125 0 2.4375.9218788.921875.90625.921875 2.34375 0 1.34375-.921875 2.265625-.90625.90625-2.4375.90625h-10.859375v25.625q0 4.90625 2.875 8.03125 2.890625 3.109375 7.40625 3.109375zm70.74826-45.70313q5.65625 0 10.03125 2.6875 4.375 2.6875038 6.8125 7.640629 2.453125 4.9375 2.453125 11.46875v27.65625q0 1.625-1.015625 2.640625-1 1-2.640625 1-1.625 0-2.6875-1-1.046875-1.015625-1.046875-2.640625v-27.65625q0-6.8125-3.515625-10.796875-3.5-3.984375-9.15625-3.984375-6.046875 0-9.796875 4.03125-3.75 4.03125-3.640625 10.5625v.1875 27.65625q0 1.625-1.015625 2.640625-1 1-2.640625 1-1.625 0-2.6875-1-1.046875-1.015625-1.046875-2.640625v-27.65625q0-6.8125-3.515625-10.796875-3.5-3.984375-9.1719055-3.984375-5.9375 0-9.78125 3.9375-3.84375 3.9375-3.84375 10.078125v28.421875q0 1.625-1.015625 2.640625-1 1-2.625 1-1.640625 0-2.703125-1-1.046875-1.015625-1.046875-2.640625v-45.125q0-1.6406288 1.046875-2.6875038 1.0625-1.0625 2.703125-1.0625 1.625 0 2.625 1.0625 1.015625 1.046875 1.015625 2.6875038v2.109375q2.6875-3.078125 6.375-4.750004 3.703125-1.6875 8.03125-1.6875 5.2812805 0 9.5000305 2.40625 4.21875 2.4062538 6.71875 6.718754 2.78125-4.3125 7.25-6.718754 4.46875-2.40625 10.03125-2.40625zm59.5213.109375q7.484375 0 13.578125 3.5000038 6.09375 3.5 9.59375 9.640625 3.515625 6.140625 3.515625 13.640625v22.5625q0 1.53125-1.0625 2.59375-1.046875 1.046875-2.6875 1.046875-1.625 0-2.6875-1-1.046875-1.015625-1.046875-2.640625v-5.765625q-3.359375 4.609375-8.546875 7.25-5.1875 2.640625-11.421875 2.640625-7.296875 0-13.203125-3.5-5.90625-3.515625-9.3125-9.609375-3.40625-6.09375-3.40625-13.578125 0-7.5 3.5-13.640625 3.5-6.140625 9.59375-9.640625 6.109375-3.5000038 13.59375-3.5000038zm0 46.750004q5.46875 0 9.875-2.59375 4.421875-2.59375 6.96875-7.15625 2.546875-4.5625 2.546875-10.21875 0-5.671875-2.546875-10.21875-2.546875-4.5625-6.96875-7.203125-4.40625-2.640625-9.875-2.640625-5.46875 0-9.9375 2.640625-4.46875 2.640625-7.015625 7.203125-2.53125 4.546875-2.53125 10.21875 0 5.65625 2.53125 10.21875 2.546875 4.5625 7.015625 7.15625 4.46875 2.59375 9.9375 2.59375zm80.72638.953125q.875.96875.875 2.203125 0 1.453125-1.34375 2.59375-1.15625.875-2.3125.875-1.53125 0-2.59375-1.34375l-19.765625-24.296875-7.203125 6.53125v15.078125q0 1.625-1.015625 2.640625-1 1-2.640625 1-1.625 0-2.640625-1-1-1.015625-1-2.640625v-67.6875q0-1.625 1-2.625 1.015625-1.015625 2.640625-1.015625 1.640625 0 2.640625 1.015625 1.015625 1 1.015625 2.625v43.687504l27.078125-24.484379q1.046875-.96875 2.296875-.96875 1.4375 0 2.40625 1.15625 1.046875 1.25 1.046875 2.3125038 0 1.34375-1.25 2.390625l-19.203125 17.375 19.96875 24.578125zm37.646362-47.70313q7.09375 0 12.5625 3.3125038 5.484375 3.296875 8.5 9.15625 3.03125 5.859375 3.03125 13.34375 0 1.546875-.96875 2.453125-.953125.90625-2.5.90625h-38.78125q.765625 7.875 6.140625 12.78125 5.390625 4.890625 13.453125 4.890625 3.453125 0 6.953125-1.203125 3.5-1.203125 5.625-3.03125 1.234375-.953125 2.578125-.953125 1.0625 0 2.125.765625 1.234375 1.15625 1.234375 2.59375 0 1.25-1.046875 2.203125-3.171875 2.6875-8.078125 4.46875-4.890625 1.78125-9.390625 1.78125-7.6875 0-13.734375-3.40625-6.046875-3.421875-9.453125-9.515625-3.40625-6.09375-3.40625-13.765625 0-7.78125 3.203125-13.875 3.21875-6.09375 8.9375-9.5 5.71875-3.4062538 13.015625-3.4062538zm0 6.609379q-7.296875 0-12.109375 4.515625-4.796875 4.515625-5.84375 11.90625h35.125q-.765625-7.390625-5.375-11.90625-4.609375-4.515625-11.796875-4.515625zm60.28772-6.718754q4.03125 0 6.375 1.0625 2.359375 1.0625 2.359375 2.9687538 0 .578125-.109375.875-.375 1.34375-1.203125 1.828125-.8125.46875-2.25.46875-.859375 0-2.96875-.1875-.765625-.09375-2.3125-.09375-7.1875 0-11.75 3.84375-4.5625 3.828125-4.5625 9.96875v28.71875q0 1.71875-.96875 2.6875-.953125.953125-2.6875.953125-1.71875 0-2.6875-.953125-.953125-.96875-.953125-2.6875v-45.21875q0-1.7343788.953125-2.6875038.96875-.96875 2.6875-.96875 1.734375 0 2.6875.96875.96875.953125.96875 2.6875038v4.21875q2.78125-4.03125 7.09375-6.234379 4.328125-2.21875 9.328125-2.21875zm21.983582 43.39063q2.296875 0 3.921875 1.6875 1.640625 1.671875 1.640625 3.984375 0 2.296875-1.640625 3.9375-1.625 1.625-3.921875 1.625-2.3125 0-3.953125-1.625-1.625-1.640625-1.625-3.9375 0-2.40625 1.671875-4.03125 1.6875-1.640625 3.90625-1.640625zm20.532837-39.0625q0-1.6406288 1.046875-2.6875038 1.0625-1.0625 2.703125-1.0625 1.625 0 2.625 1.0625 1.015625 1.046875 1.015625 2.6875038v45.015625q0 1.640625-1.015625 2.703125-1 1.046875-2.625 1.046875-1.640625 0-2.703125-1.046875-1.046875-1.0625-1.046875-2.703125zm3.75-24.187504q2.109375 0 3.640625 1.4375 1.53125 1.4375 1.53125 3.734375 0 2.21875-1.53125 3.75-1.53125 1.53125-3.734375 1.53125-2.21875 0-3.703125-1.53125-1.484375-1.53125-1.484375-3.75 0-2.296875 1.53125-3.734375 1.53125-1.4375 3.75-1.4375zm46.36902 19.96875q7.578125 0 13.625 3.4531288 6.046875 3.453125 9.546875 9.59375 3.515625 6.140625 3.515625 13.734375 0 7.578125-3.46875 13.671875-3.453125 6.09375-9.546875 9.5625-6.09375 3.453125-13.671875 3.453125-7.59375 0-13.6875-3.453125-6.09375-3.46875-9.546875-9.5625-3.453125-6.09375-3.453125-13.671875 0-7.59375 3.453125-13.734375 3.453125-6.140625 9.546875-9.59375 6.09375-3.4531288 13.6875-3.4531288zm0 6.718754q-5.46875 0-9.9375 2.59375-4.46875 2.578125-7.015625 7.140625-2.53125 4.5625-2.53125 10.328125 0 5.65625 2.53125 10.21875 2.546875 4.5625 7.015625 7.15625 4.46875 2.59375 9.9375 2.59375 5.5625 0 9.96875-2.59375 4.421875-2.59375 6.921875-7.15625 2.5-4.5625 2.5-10.21875 0-5.765625-2.5-10.328125-2.5-4.5625-6.921875-7.140625-4.40625-2.59375-9.96875-2.59375z" fill="#000"/><path d="m17.755905 0h893.92126v160.37796h-893.92126z" fill="none"/></g></svg>